# xmcd CD database file
#
# Track frame offsets:
#	150
#	1488
#	3795
#	6573
#	9744
#	12173
#	14794
#	16191
#	17139
#	19562
#	21997
#	23951
#	26829
#	28647
#	31078
#	38858
#	40953
#	43137
#	45696
#	49773
#	52218
#	54718
#	57398
#	58976
#	63196
#	66105
#	67904
#	70855
#	74657
#	79590
#	82560
#	85659
#	90773
#	94311
#	99531
#	103193
#	105738
#	108141
#
# Disc length: 1507 seconds
#
# Revision: 3
# Processed by: cddbd v1.5.2PL0 Copyright (c) Steve Scherf et al.
# Submitted via: CDex 1.70beta3
#
DISCID=eb05e126
DTITLE=Various Artist - 音読初級
DYEAR=1900
DGENRE=eikaiwa
TTITLE0=o1
TTITLE1=o02
TTITLE2=o3-L1
TTITLE3=o04
TTITLE4=o5
TTITLE5=o06
TTITLE6=o07
TTITLE7=o08
TTITLE8=o09
TTITLE9=o10
TTITLE10=o11
TTITLE11=o12
TTITLE12=o13
TTITLE13=o14
TTITLE14=o15
TTITLE15=o16
TTITLE16=o17
TTITLE17=o18
TTITLE18=o19
TTITLE19=o20
TTITLE20=o21
TTITLE21=o22
TTITLE22=o23
TTITLE23=o24
TTITLE24=o25
TTITLE25=o26
TTITLE26=o27
TTITLE27=o28
TTITLE28=o29
TTITLE29=o30
TTITLE30=o31
TTITLE31=o32
TTITLE32=o33
TTITLE33=o34
TTITLE34=o35
TTITLE35=o36
TTITLE36=o37
TTITLE37=o38
EXTD=
EXTT0=
EXTT1=
EXTT2=
EXTT3=
EXTT4=
EXTT5=
EXTT6=
EXTT7=
EXTT8=
EXTT9=
EXTT10=
EXTT11=
EXTT12=
EXTT13=
EXTT14=
EXTT15=
EXTT16=
EXTT17=
EXTT18=
EXTT19=
EXTT20=
EXTT21=
EXTT22=
EXTT23=
EXTT24=
EXTT25=
EXTT26=
EXTT27=
EXTT28=
EXTT29=
EXTT30=
EXTT31=
EXTT32=
EXTT33=
EXTT34=
EXTT35=
EXTT36=
EXTT37=
PLAYORDER=
